<svg width="12" height="10" viewBox="0 0 12 10" fill="none" xmlns="http://www.w3.org/2000/svg">
<path fill-rule="evenodd" clip-rule="evenodd" d="M11.874 1.241C11.747 1.179 11.692 1.2975 11.618 1.358C11.5925 1.3775 11.571 1.403 11.5495 1.426C11.3635 1.6245 11.1465 1.7545 10.863 1.739C10.4485 1.716 10.0945 1.846 9.7815 2.163C9.715 1.772 9.494 1.539 9.158 1.389C8.982 1.311 8.804 1.2335 8.6805 1.064C8.5945 0.9435 8.571 0.809 8.528 0.677C8.5005 0.597 8.473 0.5155 8.3815 0.502C8.2815 0.4865 8.2425 0.57 8.2035 0.64C8.047 0.926 7.9865 1.241 7.9925 1.56C8.006 2.278 8.309 2.85 8.9115 3.2565C8.98 3.303 8.9975 3.35 8.976 3.418C8.935 3.558 8.886 3.694 8.843 3.8345C8.8155 3.924 8.7745 3.943 8.6785 3.9045C8.35413 3.7651 8.05948 3.56482 7.8105 3.3145C7.382 2.9005 6.995 2.4435 6.512 2.0855C6.40009 2.00281 6.28518 1.92426 6.1675 1.85C5.675 1.3715 6.2325 0.9785 6.3615 0.932C6.4965 0.883 6.408 0.716 5.972 0.718C5.536 0.72 5.137 0.8655 4.6285 1.06C4.55293 1.08896 4.47519 1.11186 4.396 1.1285C3.92081 1.03897 3.43482 1.02177 2.9545 1.0775C2.012 1.1825 1.2595 1.6285 0.705998 2.389C0.0409977 3.303 -0.115502 4.342 0.0759977 5.425C0.277498 6.567 0.860498 7.5125 1.756 8.2515C2.685 9.018 3.7545 9.3935 4.975 9.3215C5.716 9.279 6.5415 9.1795 7.472 8.3915C7.707 8.5085 7.953 8.555 8.362 8.59C8.677 8.6195 8.98 8.575 9.2145 8.526C9.582 8.448 9.5565 8.1075 9.424 8.0455C8.3465 7.5435 8.583 7.748 8.3675 7.5825C8.9155 6.9345 9.7405 6.2615 10.0635 4.081C10.0885 3.9075 10.067 3.7985 10.0635 3.6585C10.0615 3.5735 10.081 3.54 10.1785 3.5305C10.449 3.50244 10.7114 3.42176 10.951 3.293C11.649 2.9115 11.931 2.2855 11.9975 1.5345C12.0075 1.4195 11.9955 1.3015 11.874 1.241ZM5.7905 8C4.746 7.179 4.2395 6.9085 4.0305 6.92C3.8345 6.932 3.87 7.1555 3.913 7.3015C3.958 7.4455 4.0165 7.5445 4.0985 7.671C4.1555 7.7545 4.1945 7.879 4.042 7.9725C3.7055 8.1805 3.121 7.9025 3.0935 7.889C2.413 7.488 1.8435 6.959 1.443 6.2355C1.056 5.539 0.830998 4.792 0.793998 3.9945C0.783998 3.8015 0.840498 3.7335 1.0325 3.6985C1.28455 3.65027 1.54281 3.64368 1.797 3.679C2.863 3.835 3.77 4.3115 4.531 5.066C4.965 5.496 5.2935 6.0095 5.632 6.5115C5.992 7.0445 6.379 7.5525 6.872 7.9685C7.046 8.1145 7.1845 8.2255 7.3175 8.307C6.9165 8.352 6.2475 8.362 5.7905 8ZM6.2905 4.78C6.29041 4.75516 6.29637 4.73068 6.30787 4.70866C6.31936 4.68664 6.33604 4.66775 6.35647 4.65362C6.3769 4.6395 6.40046 4.63056 6.42512 4.62757C6.44978 4.62459 6.47479 4.62765 6.498 4.6365C6.52758 4.64711 6.55311 4.66669 6.57104 4.6925C6.58896 4.71831 6.59839 4.74908 6.598 4.7805C6.59807 4.8008 6.59409 4.82092 6.58631 4.83967C6.57852 4.85842 6.56709 4.87544 6.55266 4.88973C6.53823 4.90401 6.52111 4.91529 6.50228 4.92289C6.48345 4.93049 6.4633 4.93427 6.443 4.934C6.42285 4.93407 6.40289 4.93012 6.38428 4.92238C6.36568 4.91464 6.34881 4.90327 6.33465 4.88893C6.3205 4.87458 6.30935 4.85756 6.30185 4.83886C6.29435 4.82016 6.29017 4.80015 6.2905 4.78ZM7.8455 5.578C7.7455 5.6185 7.646 5.6535 7.5505 5.658C7.40682 5.66301 7.26584 5.61814 7.1515 5.531C7.0145 5.416 6.9165 5.352 6.8755 5.152C6.86136 5.05426 6.86407 4.95482 6.8835 4.858C6.9185 4.6945 6.8795 4.5895 6.764 4.4945C6.6705 4.4165 6.551 4.395 6.42 4.395C6.37515 4.3924 6.33158 4.37902 6.293 4.356C6.238 4.329 6.193 4.261 6.236 4.177C6.25 4.15 6.316 4.084 6.332 4.072C6.51 3.971 6.7155 4.004 6.905 4.08C7.081 4.152 7.214 4.284 7.4055 4.471C7.601 4.6965 7.6365 4.759 7.748 4.928C7.836 5.0605 7.916 5.1965 7.9705 5.352C8.004 5.4495 7.961 5.529 7.8455 5.578Z" fill="white"/>
</svg>
